<svg xmlns="http://www.w3.org/2000/svg" viewBox="0 0 29.59 29.59"><defs><style>.cls-1{fill:#cf3341;}.cls-2{fill:#fff;}</style></defs><g id="Layer_2" data-name="Layer 2"><g id="Layer_1-2" data-name="Layer 1"><rect class="cls-1" width="29.59" height="29.59"/><path class="cls-2" d="M5.59,21.43V8.18h7.19a4.7,4.7,0,0,1,3,.9,2.94,2.94,0,0,1,1.13,2.4,3.18,3.18,0,0,1-2,3.16,2.92,2.92,0,0,1,2.71,3.06c0,2.14-1.64,3.73-4.17,3.73ZM8,13.63h4.64A1.6,1.6,0,0,0,14.44,12c0-1-.85-1.64-2.2-1.64H8Zm0,5.58h4.83a2,2,0,0,0,2.29-1.91c0-.88-.88-1.46-2.25-1.46H8Z"/><path class="cls-2" d="M23.57,22.1a4,4,0,0,1-2-3.57V0H19.28V19.41a5,5,0,0,0,3,4.58l.62.35L24,22.41l0-.06Z"/></g></g></svg>