<svg xmlns="http://www.w3.org/2000/svg" viewBox="0 0 20.64 27.27"><defs><style>.cls-1{fill:#cf3341;}</style></defs><g id="Layer_2" data-name="Layer 2"><g id="Layer_1-2" data-name="Layer 1"><path class="cls-1" d="M0,24V9.17H8.06a5.2,5.2,0,0,1,3.31,1,3.27,3.27,0,0,1,1.28,2.69,3.55,3.55,0,0,1-2.27,3.53,3.27,3.27,0,0,1,3,3.44c0,2.4-1.83,4.18-4.66,4.18Zm2.71-8.75H7.9a1.79,1.79,0,0,0,2-1.78c0-1.07-.95-1.84-2.47-1.84H2.71Zm0,6.26H8.12c1.56,0,2.57-.91,2.57-2.14,0-1-1-1.63-2.53-1.63H2.71Z"/><path class="cls-1" d="M20.15,24.77a4.47,4.47,0,0,1-2.21-4V0H15.35V21.76a5.62,5.62,0,0,0,3.37,5.13l.69.38,1.19-2.15,0-.07C20.47,25,20.3,24.87,20.15,24.77Z"/></g></g></svg>