<svg xmlns="http://www.w3.org/2000/svg" viewBox="0 0 70.2 24.16"><defs><style>.cls-1{fill:#cf3341;}</style></defs><g id="Layer_2" data-name="Layer 2"><g id="Layer_1-2" data-name="Layer 1"><path class="cls-1" d="M0,21.74v-11H6a3.84,3.84,0,0,1,2.46.75,2.41,2.41,0,0,1,1,2,2.65,2.65,0,0,1-1.68,2.63A2.43,2.43,0,0,1,10,18.64a3.15,3.15,0,0,1-3.47,3.1Zm2-6.49H5.86a1.33,1.33,0,0,0,1.5-1.32c0-.8-.7-1.37-1.83-1.37H2ZM2,19.9H6a1.69,1.69,0,0,0,1.9-1.59c0-.74-.73-1.22-1.87-1.22H2Z"/><path class="cls-1" d="M15.09,13.46H17v4.82a1.85,1.85,0,0,0,2,1.95,1.81,1.81,0,0,0,2-1.91V13.46H23v5a3.39,3.39,0,0,1-1,2.58,4.06,4.06,0,0,1-2.91,1,4.09,4.09,0,0,1-2.94-1,3.48,3.48,0,0,1-1.05-2.61Z"/><path class="cls-1" d="M29,13.22a4.45,4.45,0,0,1,3.82,2l-1.62,1A2.57,2.57,0,0,0,29,15a2.38,2.38,0,0,0-1.8.74,2.48,2.48,0,0,0-.72,1.81,2.52,2.52,0,0,0,.72,1.82A2.53,2.53,0,0,0,31.13,19l1.76.89A4.44,4.44,0,0,1,29,21.92a4.35,4.35,0,1,1,0-8.7Z"/><path class="cls-1" d="M36,21.74h-2V10.13h2v4a4.06,4.06,0,0,1,2.7-1,3.15,3.15,0,0,1,3.29,3v5.56H40.06V16.93A1.77,1.77,0,0,0,38.14,15,2,2,0,0,0,36,16.87Z"/><path class="cls-1" d="M51.91,19.88a3.73,3.73,0,0,1-1.61,1.47,4.94,4.94,0,0,1-2.34.57,4.25,4.25,0,0,1-4.54-4.36,4.31,4.31,0,0,1,4.41-4.34,4.14,4.14,0,0,1,4.26,4.43v.76H45.52a2.55,2.55,0,0,0,2.53,1.71,2.8,2.8,0,0,0,2.4-1.3Zm-6.39-3.13h4.63A2.28,2.28,0,0,0,47.86,15,2.34,2.34,0,0,0,45.52,16.75Z"/><path class="cls-1" d="M61.8,19.88a3.71,3.71,0,0,1-1.6,1.47,4.94,4.94,0,0,1-2.34.57,4.25,4.25,0,0,1-4.55-4.36,4.31,4.31,0,0,1,4.41-4.34A4.14,4.14,0,0,1,62,17.65v.76H55.41A2.57,2.57,0,0,0,58,20.12a2.83,2.83,0,0,0,2.4-1.3Zm-6.39-3.13h4.64A2.29,2.29,0,0,0,57.75,15,2.35,2.35,0,0,0,55.41,16.75Z"/><path class="cls-1" d="M70.2,19.94v1.8H62.59v-.15l4.2-6.33H63.22v-1.8h7v.15L66,19.94Z"/><path class="cls-1" d="M15,22.3a3.33,3.33,0,0,1-1.64-3V0H11.39V20.06a4.16,4.16,0,0,0,2.51,3.81l.51.29.89-1.6,0,0Z"/></g></g></svg>